<svg version="1.1" id="Layer_1" xmlns="http://www.w3.org/2000/svg" xmlns:xlink="http://www.w3.org/1999/xlink" x="0px" y="0px"
	 width="100%" viewBox="0 0 500 500" enable-background="new 0 0 500 500" xml:space="preserve">
<path fill="#000B1B" opacity="1.000000" stroke="none" 
	d="
M315.000000,501.000000 
	C210.000031,501.000000 105.500053,501.000000 1.000056,501.000000 
	C1.000037,334.333405 1.000037,167.666794 1.000019,1.000146 
	C167.666565,1.000097 334.333130,1.000097 500.999756,1.000049 
	C500.999847,167.666519 500.999847,334.333038 500.999939,500.999786 
	C439.166656,501.000000 377.333344,501.000000 315.000000,501.000000 
M78.993042,220.338745 
	C78.771828,220.316483 78.550606,220.294235 78.329391,220.271973 
	C78.467293,220.601898 78.605194,220.931808 78.793091,222.004715 
	C90.793419,253.889069 111.112030,275.715607 147.432968,278.277466 
	C125.466812,283.934601 106.017807,275.778046 86.333275,268.166901 
	C89.230011,273.243134 92.293755,277.781036 95.584122,282.148224 
	C109.987419,301.265076 128.721527,309.514771 152.726700,305.365967 
	C164.150070,303.391632 175.728149,302.312592 187.236130,300.827972 
	C172.153992,309.145355 157.162613,317.704010 139.590927,318.167999 
	C134.593689,318.299957 129.524323,315.700226 124.213570,314.644135 
	C124.117584,314.643188 124.021591,314.642242 123.925606,314.641296 
	C124.122696,314.552002 124.319794,314.462708 124.064934,315.028809 
	C127.735374,319.202393 130.948288,323.924652 135.166092,327.441833 
	C145.814789,336.321686 157.662750,338.399292 171.074738,333.444000 
	C179.534927,330.318207 184.714508,323.573364 191.226822,318.288849 
	C206.054306,306.256958 222.395187,298.531738 242.017334,300.050537 
	C245.725677,300.337585 249.375092,301.386017 253.051697,302.083099 
	C252.977417,302.721130 252.903137,303.359161 252.828857,303.997192 
	C250.281067,303.997192 247.730179,304.079254 245.186020,303.983215 
	C233.091217,303.526794 221.916458,306.635895 212.503082,314.126434 
	C204.333435,320.627289 196.434845,327.636719 189.325287,335.268066 
	C172.843185,352.959869 152.856369,363.278931 128.763824,363.999512 
	C112.349854,364.490448 95.877220,363.043213 79.431755,362.436920 
	C76.436272,362.326508 73.445358,362.092438 69.722771,361.872284 
	C78.437210,372.848602 89.783722,380.165344 102.385849,383.830475 
	C127.973389,391.272217 153.103699,388.827606 177.952698,380.509705 
	C192.748474,375.557007 205.952484,367.540009 219.239304,359.113800 
	C219.425659,359.252228 219.612000,359.390656 219.384125,360.074829 
	C192.599808,385.285278 163.615463,407.413513 130.218307,424.014038 
	C149.197327,424.017517 168.032547,423.888794 186.663208,421.871155 
	C219.807587,418.281738 246.356781,403.011414 263.824310,373.922333 
	C271.868073,360.526886 279.292297,346.754944 286.838654,333.066193 
	C303.351410,303.112885 326.484253,280.268921 358.014954,266.372589 
	C361.881195,264.668671 365.801270,263.086792 370.818512,260.976349 
	C366.444244,259.971527 363.235535,259.391357 360.119141,258.491455 
	C346.552032,254.573700 333.119537,250.134521 319.434662,246.694092 
	C302.245972,242.372818 286.021149,245.193436 272.855072,257.497803 
	C267.430450,262.567383 262.193359,262.888885 256.110382,261.391937 
	C226.025208,253.988373 197.234055,243.325012 171.733200,225.342682 
	C144.893433,206.416168 123.031128,182.888550 109.607468,152.561325 
	C98.253304,126.909561 96.033051,99.571312 96.818031,71.870331 
	C96.870735,70.010460 96.824913,68.147797 96.824913,65.092407 
	C81.339272,87.984390 72.843910,111.366531 77.116081,138.123947 
	C80.502602,159.334351 90.968018,177.090317 104.306763,193.423782 
	C105.351082,194.702576 106.292099,196.065704 107.281120,197.389648 
	C94.420578,189.911774 85.964203,178.366928 76.917191,165.731964 
	C76.521004,203.751709 92.262352,230.246674 125.653610,246.291214 
	C119.419350,245.068466 113.078865,244.098221 108.025993,241.016663 
	C98.020103,234.914490 88.725449,227.646088 78.993042,220.338745 
M197.135590,171.344101 
	C198.931946,176.439392 200.728302,181.534683 202.524658,186.629974 
	C202.109909,186.776001 201.695175,186.922028 201.280426,187.068069 
	C186.851059,170.896622 181.917694,151.279556 181.206406,129.696396 
	C177.172440,138.728775 173.346573,147.719070 170.976791,157.078079 
	C166.611984,174.316101 169.044678,190.492538 181.293106,204.245422 
	C186.048813,209.585266 190.761536,215.038422 196.070511,219.796524 
	C212.499893,234.521164 230.579254,246.432129 252.809998,250.455582 
	C257.283569,251.265228 261.874451,251.426880 266.720337,251.918655 
	C267.532440,238.993530 266.660400,226.920105 261.363922,216.022980 
	C254.988739,202.906586 247.825378,190.084961 239.978104,177.789993 
	C221.029572,148.101730 215.023743,116.190788 221.810501,81.780098 
	C223.619705,72.607018 225.822479,63.511562 227.844559,54.380466 
	C227.378998,54.127007 226.913452,53.873547 226.447891,53.620087 
	C219.820206,64.861710 212.563873,75.785767 206.692108,87.409256 
	C193.351654,113.817490 188.537369,141.474655 197.135590,171.344101 
M414.028320,224.685730 
	C414.028320,222.147690 414.028320,219.609665 414.028320,215.791412 
	C407.022888,224.465698 400.633301,231.723145 395.023010,239.539932 
	C390.846558,245.358887 386.360504,249.384018 378.721100,247.988480 
	C378.484802,247.945312 378.177643,248.289734 377.742004,248.549942 
	C377.742004,257.225464 377.742004,265.986755 377.742004,274.868713 
	C378.994659,274.987396 380.018463,275.312347 380.946014,275.134735 
	C386.438232,274.083038 389.770386,276.730743 392.946198,280.947235 
	C399.412140,289.532135 406.380005,297.739014 414.028351,307.199127 
	C414.028351,279.089478 414.028351,252.362183 414.028320,224.685730 
M468.188354,272.702362 
	C471.233398,250.926727 465.854309,231.457306 452.614197,213.820328 
	C446.553894,220.026001 446.679169,219.957291 450.435913,226.807373 
	C463.114868,249.926346 463.318512,273.110596 450.283112,296.153595 
	C446.255798,303.272797 446.090973,303.389740 452.826172,308.851532 
	C460.938782,298.384949 466.041077,286.649719 468.188354,272.702362 
M439.470642,275.661255 
	C438.885590,277.388031 438.385406,279.149261 437.700867,280.835663 
	C434.667542,288.308777 434.648376,288.300995 440.503754,294.065552 
	C453.969025,277.805573 453.943970,245.129242 439.923737,228.307922 
	C439.175598,232.248993 433.111023,233.092026 435.951416,238.602814 
	C441.901947,250.147598 442.945221,262.322571 439.470642,275.661255 
M429.811005,247.033096 
	C429.342834,246.099548 428.874664,245.166016 428.281464,243.983139 
	C424.231689,248.033966 420.750946,251.500732 422.808868,257.569580 
	C423.614868,259.946564 423.667023,263.073242 422.829315,265.417877 
	C420.607300,271.637115 424.583618,274.799377 428.363647,278.884796 
	C433.247437,268.377747 433.381775,258.166138 429.811005,247.033096 
z"/>
<path fill="#38B5FD" opacity="1.000000" stroke="none" 
	d="
M218.686462,358.690308 
	C205.952484,367.540009 192.748474,375.557007 177.952698,380.509705 
	C153.103699,388.827606 127.973389,391.272217 102.385849,383.830475 
	C89.783722,380.165344 78.437210,372.848602 69.722771,361.872284 
	C73.445358,362.092438 76.436272,362.326508 79.431755,362.436920 
	C95.877220,363.043213 112.349854,364.490448 128.763824,363.999512 
	C152.856369,363.278931 172.843185,352.959869 189.325287,335.268066 
	C196.434845,327.636719 204.333435,320.627289 212.503082,314.126434 
	C221.916458,306.635895 233.091217,303.526794 245.186020,303.983215 
	C247.730179,304.079254 250.281067,303.997192 252.828857,303.997192 
	C252.903137,303.359161 252.977417,302.721130 253.051697,302.083099 
	C249.375092,301.386017 245.725677,300.337585 242.017334,300.050537 
	C222.395187,298.531738 206.054306,306.256958 191.226822,318.288849 
	C184.714508,323.573364 179.534927,330.318207 171.074738,333.444000 
	C157.662750,338.399292 145.814789,336.321686 135.166092,327.441833 
	C130.948288,323.924652 127.735374,319.202393 124.259087,314.733704 
	C124.453239,314.438629 124.488037,314.353180 124.488037,314.353210 
	C129.524323,315.700226 134.593689,318.299957 139.590927,318.167999 
	C157.162613,317.704010 172.153992,309.145355 187.236130,300.827972 
	C175.728149,302.312592 164.150070,303.391632 152.726700,305.365967 
	C128.721527,309.514771 109.987419,301.265076 95.584122,282.148224 
	C92.293755,277.781036 89.230011,273.243134 86.333275,268.166901 
	C106.017807,275.778046 125.466812,283.934601 147.432968,278.277466 
	C111.112030,275.715607 90.793419,253.889069 78.866402,221.532623 
	C78.939713,221.060532 79.136787,220.859787 79.136787,220.859787 
	C88.725449,227.646088 98.020103,234.914490 108.025993,241.016663 
	C113.078865,244.098221 119.419350,245.068466 125.653610,246.291214 
	C92.262352,230.246674 76.521004,203.751709 76.917191,165.731964 
	C85.964203,178.366928 94.420578,189.911774 107.281120,197.389648 
	C106.292099,196.065704 105.351082,194.702576 104.306763,193.423782 
	C90.968018,177.090317 80.502602,159.334351 77.116081,138.123947 
	C72.843910,111.366531 81.339272,87.984390 96.824913,65.092407 
	C96.824913,68.147797 96.870735,70.010460 96.818031,71.870331 
	C96.033051,99.571312 98.253304,126.909561 109.607468,152.561325 
	C123.031128,182.888550 144.893433,206.416168 171.733200,225.342682 
	C197.234055,243.325012 226.025208,253.988373 256.110382,261.391937 
	C262.193359,262.888885 267.430450,262.567383 272.855072,257.497803 
	C286.021149,245.193436 302.245972,242.372818 319.434662,246.694092 
	C333.119537,250.134521 346.552032,254.573700 360.119141,258.491455 
	C363.235535,259.391357 366.444244,259.971527 370.818512,260.976349 
	C365.801270,263.086792 361.881195,264.668671 358.014954,266.372589 
	C326.484253,280.268921 303.351410,303.112885 286.838654,333.066193 
	C279.292297,346.754944 271.868073,360.526886 263.824310,373.922333 
	C246.356781,403.011414 219.807587,418.281738 186.663208,421.871155 
	C168.032547,423.888794 149.197327,424.017517 130.218307,424.014038 
	C163.615463,407.413513 192.599808,385.285278 219.897568,359.528198 
	C220.331665,358.617889 220.252319,358.254211 220.172943,357.890564 
	C219.677444,358.157135 219.181946,358.423706 218.686462,358.690308 
M222.636597,357.011749 
	C222.809875,356.726959 222.983154,356.442139 223.771057,355.868103 
	C223.718124,355.490265 223.665207,355.112396 223.612274,354.734558 
	C223.234192,354.973633 222.856110,355.212708 222.028564,355.720673 
	C221.779251,355.963440 221.529938,356.206207 220.692200,356.961853 
	C220.746536,357.310028 220.800888,357.658234 220.855225,358.006409 
	C221.280823,357.716797 221.706436,357.427185 222.636597,357.011749 
z"/>
<path fill="#4FBDFD" opacity="1.000000" stroke="none" 
	d="
M197.050781,170.947891 
	C188.537369,141.474655 193.351654,113.817490 206.692108,87.409256 
	C212.563873,75.785767 219.820206,64.861710 226.447891,53.620087 
	C226.913452,53.873547 227.378998,54.127007 227.844559,54.380466 
	C225.822479,63.511562 223.619705,72.607018 221.810501,81.780098 
	C215.023743,116.190788 221.029572,148.101730 239.978104,177.789993 
	C247.825378,190.084961 254.988739,202.906586 261.363922,216.022980 
	C266.660400,226.920105 267.532440,238.993530 266.720337,251.918655 
	C261.874451,251.426880 257.283569,251.265228 252.809998,250.455582 
	C230.579254,246.432129 212.499893,234.521164 196.070511,219.796524 
	C190.761536,215.038422 186.048813,209.585266 181.293106,204.245422 
	C169.044678,190.492538 166.611984,174.316101 170.976791,157.078079 
	C173.346573,147.719070 177.172440,138.728775 181.206406,129.696396 
	C181.917694,151.279556 186.851059,170.896622 201.280426,187.068069 
	C201.695175,186.922028 202.109909,186.776001 202.524658,186.629974 
	C200.728302,181.534683 198.931946,176.439392 197.050781,170.947891 
M201.723984,187.328400 
	C202.036301,187.663177 202.348618,187.997940 202.660919,188.332718 
	C202.541199,187.835236 202.421478,187.337753 201.723984,187.328400 
z"/>
<path fill="#FC721C" opacity="1.000000" stroke="none" 
	d="
M414.028320,225.160309 
	C414.028351,252.362183 414.028351,279.089478 414.028351,307.199127 
	C406.380005,297.739014 399.412140,289.532135 392.946198,280.947235 
	C389.770386,276.730743 386.438232,274.083038 380.946014,275.134735 
	C380.018463,275.312347 378.994659,274.987396 377.742004,274.868713 
	C377.742004,265.986755 377.742004,257.225464 377.742004,248.549942 
	C378.177643,248.289734 378.484802,247.945312 378.721100,247.988480 
	C386.360504,249.384018 390.846558,245.358887 395.023010,239.539932 
	C400.633301,231.723145 407.022888,224.465698 414.028320,215.791412 
	C414.028320,219.609665 414.028320,222.147690 414.028320,225.160309 
z"/>
<path fill="#F8701C" opacity="1.000000" stroke="none" 
	d="
M468.141296,273.140686 
	C466.041077,286.649719 460.938782,298.384949 452.826172,308.851532 
	C446.090973,303.389740 446.255798,303.272797 450.283112,296.153595 
	C463.318512,273.110596 463.114868,249.926346 450.435913,226.807373 
	C446.679169,219.957291 446.553894,220.026001 452.614197,213.820328 
	C465.854309,231.457306 471.233398,250.926727 468.141296,273.140686 
z"/>
<path fill="#F7701C" opacity="1.000000" stroke="none" 
	d="
M439.613953,275.272766 
	C442.945221,262.322571 441.901947,250.147598 435.951416,238.602814 
	C433.111023,233.092026 439.175598,232.248993 439.923737,228.307922 
	C453.943970,245.129242 453.969025,277.805573 440.503754,294.065552 
	C434.648376,288.300995 434.667542,288.308777 437.700867,280.835663 
	C438.385406,279.149261 438.885590,277.388031 439.613953,275.272766 
z"/>
<path fill="#F66F1C" opacity="1.000000" stroke="none" 
	d="
M429.916901,247.391251 
	C433.381775,258.166138 433.247437,268.377747 428.363647,278.884796 
	C424.583618,274.799377 420.607300,271.637115 422.829315,265.417877 
	C423.667023,263.073242 423.614868,259.946564 422.808868,257.569580 
	C420.750946,251.500732 424.231689,248.033966 428.281464,243.983139 
	C428.874664,245.166016 429.342834,246.099548 429.916901,247.391251 
z"/>
<path fill="#38B5FD" opacity="1.000000" stroke="none" 
	d="
M78.841400,221.161133 
	C78.605194,220.931808 78.467293,220.601898 78.329391,220.271973 
	C78.550606,220.294235 78.771828,220.316483 79.064911,220.599274 
	C79.136787,220.859787 78.939713,221.060532 78.841400,221.161133 
z"/>
<path fill="#38B5FD" opacity="1.000000" stroke="none" 
	d="
M124.485062,314.406006 
	C124.319794,314.462708 124.122696,314.552002 123.925606,314.641296 
	C124.021591,314.642242 124.117584,314.643188 124.350800,314.498657 
	C124.488037,314.353180 124.453239,314.438629 124.485062,314.406006 
z"/>
<path fill="#000B1B" opacity="1.000000" stroke="none" 
	d="
M222.478043,355.451813 
	C222.856110,355.212708 223.234192,354.973633 223.612274,354.734558 
	C223.665207,355.112396 223.718124,355.490265 223.295288,355.835236 
	C222.819519,355.802368 222.478043,355.451813 222.478043,355.451813 
z"/>
<path fill="#000B1B" opacity="1.000000" stroke="none" 
	d="
M222.987976,355.979858 
	C222.983154,356.442139 222.809875,356.726959 222.172821,356.900818 
	C221.566254,356.676270 221.423431,356.562622 221.280609,356.448975 
	C221.529938,356.206207 221.779251,355.963440 222.253296,355.586243 
	C222.478043,355.451813 222.819519,355.802368 222.987976,355.979858 
z"/>
<path fill="#000B1B" opacity="1.000000" stroke="none" 
	d="
M221.920563,356.963745 
	C221.706436,357.427185 221.280823,357.716797 220.855225,358.006409 
	C220.800888,357.658234 220.746536,357.310028 220.986404,356.705414 
	C221.423431,356.562622 221.566254,356.676270 221.920563,356.963745 
z"/>
<path fill="#000B1B" opacity="1.000000" stroke="none" 
	d="
M218.962875,358.902039 
	C219.181946,358.423706 219.677444,358.157135 220.172943,357.890564 
	C220.252319,358.254211 220.331665,358.617889 220.104675,359.255310 
	C219.612000,359.390656 219.425659,359.252228 218.962875,358.902039 
z"/>
<path fill="#000B1B" opacity="1.000000" stroke="none" 
	d="
M202.012878,187.084320 
	C202.421478,187.337753 202.541199,187.835236 202.660919,188.332718 
	C202.348618,187.997940 202.036301,187.663177 202.012878,187.084320 
z"/>
</svg>